<?xml version="1.0" encoding="utf-8"?>
<!-- Generator: Adobe Illustrator 19.0.0, SVG Export Plug-In . SVG Version: 6.00 Build 0)  -->
<svg version="1.1" id="Layer_1" xmlns="http://www.w3.org/2000/svg" xmlns:xlink="http://www.w3.org/1999/xlink" x="0px" y="0px"
	 viewBox="0 0 36 56" style="enable-background:new 0 0 36 56;" xml:space="preserve">
<style type="text/css">
	.st0{clip-path:url(#XMLID_4_);}
	.st1{fill:none;stroke:#CECECE;stroke-width:9;stroke-miterlimit:10;}
	.st2{fill:none;stroke:#CECECE;stroke-width:9;stroke-miterlimit:10;stroke-dasharray:2.9391,0.9797;}
	.st3{fill:#CECECE;}
</style>
<g id="XMLID_2_">
	<defs>
		<path id="XMLID_1_" d="M-1,32.7c1-0.9,15.3-5.5,15.3-5.5l5.7,0.7V1h16v55l-37,0.1V32.7z"/>
	</defs>
	<clipPath id="XMLID_4_">
		<use xlink:href="#XMLID_1_"  style="overflow:visible;"/>
	</clipPath>
	<g id="XMLID_99_" class="st0">
		<g id="XMLID_98_">
			<g id="XMLID_13_">
				<path id="XMLID_16_" class="st1" d="M-17.2,6.2c0.5-0.2,0.9-0.4,1.4-0.6"/>
				<path id="XMLID_15_" class="st2" d="M-14.9,5.2c36.6-15,58.6,20,35.5,31.4"/>
				<path id="XMLID_14_" class="st1" d="M20.2,36.8c-0.4,0.2-0.9,0.4-1.4,0.6"/>
			</g>
		</g>
		<polygon id="XMLID_95_" class="st3" points="0.3,38.7 9.1,29.2 17.4,32 26.1,38.6 24.9,49.3 18,56.1 13.8,51.3 19.6,45.3 14.1,37 
			5.3,43.6 		"/>
	</g>
</g>
</svg>
