<?xml version="1.0" encoding="utf-8"?>
<!-- Generator: Adobe Illustrator 19.0.0, SVG Export Plug-In . SVG Version: 6.00 Build 0)  -->
<svg version="1.1" id="Layer_1" xmlns="http://www.w3.org/2000/svg" xmlns:xlink="http://www.w3.org/1999/xlink" x="0px" y="0px"
	 viewBox="0 0 166 98" style="enable-background:new 0 0 166 98;" xml:space="preserve">
<style type="text/css">
	.st0{clip-path:url(#XMLID_22_);}
	.st1{fill:#4289B2;}
	.st2{fill:#CECECE;}
	.st3{fill:#E6E6E6;}
	.st4{fill:#FFFFFF;}
	.st5{fill:#808080;}
	.st6{opacity:0.5;}
	.st7{fill:#F2F2F2;fill-opacity:0.15;}
	.st8{fill:#44758E;}
	.st9{opacity:0.3;}
	.st10{fill:#333333;}
	.st11{fill:none;stroke:#CECECE;stroke-width:9;stroke-miterlimit:10;}
	.st12{fill:none;stroke:#CECECE;stroke-width:9;stroke-miterlimit:10;stroke-dasharray:2.9391,0.9797;}
</style>
<g id="XMLID_2_">
	<defs>
		<rect id="XMLID_1_" x="-10" width="176.4" height="98"/>
	</defs>
	<clipPath id="XMLID_22_">
		<use xlink:href="#XMLID_1_"  style="overflow:visible;"/>
	</clipPath>
	<g id="XMLID_55_" class="st0">
		<g id="XMLID_58_">
			<path id="XMLID_88_" class="st1" d="M52.9,74.5c6.6-29.4,27.2-47.6,56.3-46.6l-0.2,2l-1.5-0.1c0.1,0-0.2,0-0.1,0
				c0.1,0,0.3,0,0.3,0L109,30l0.2-2c27.4,1.4,44.3,21.2,45.5,50.9c-15.1,9.1-33.9,11.9-52,10.5C84.3,89.3,66.3,84.9,52.9,74.5z"/>
			<g id="XMLID_85_">
				<g id="XMLID_86_">
					<polygon id="XMLID_87_" class="st2" points="131.2,43 142.9,32.3 139.8,30.7 150.9,23.1 147.5,21.7 158.3,13.2 157.2,11.9 
						144.1,22.1 147.3,23.5 136.5,31.1 139.9,32.8 130,41.7 					"/>
				</g>
			</g>
			<path id="XMLID_84_" class="st3" d="M129.2,42c0.3,1.2,1.6,2,2.7,1.6c1.2-0.2,1.8-1.5,1.5-2.7c-0.3-1.2-1.5-2-2.7-1.6
				C129.6,39.6,128.9,40.7,129.2,42z"/>
			<g id="XMLID_81_">
				<path id="XMLID_83_" class="st4" d="M106,52.5c17.6,0.5,34-8.5,31.4,6.3c-0.7,3.5-14.8,7.3-32.5,6.5c-17.6-0.8-31-5.7-31-9.3
					C73.8,41.3,88.4,51.6,106,52.5z"/>
				<path id="XMLID_82_" class="st5" d="M106,52.5c16.6,0.6,32.1-7.4,31.6,3.9c2-13.6-14.1-4.9-31.4-5.5C89,50.1,74.6,40.1,74,53.6
					C75.6,42.6,89.5,51.7,106,52.5z"/>
			</g>
			<g id="XMLID_71_">
				<g id="XMLID_73_">
					<g id="XMLID_79_">
						<polygon id="XMLID_80_" class="st2" points="85,38.5 86.4,37.4 75.1,25 79.6,22.7 69,16.1 74,13.9 59.8,6.8 58.8,8.3 
							69.9,13.9 65.1,15.9 76,22.1 71.3,23.6 						"/>
					</g>
					<g id="XMLID_74_">
						<g id="XMLID_77_">
							<path id="XMLID_78_" class="st1" d="M50.9,5c-0.3,2.5,1.4,4.7,4.1,4.8c2.7,0.3,5.1-1.5,5.4-4C60.8,3.4,59,1.3,56.4,1
								C53.8,0.8,51.3,2.6,50.9,5z"/>
						</g>
						<g id="XMLID_75_" class="st6">
							<path id="XMLID_76_" class="st4" d="M52.2,3.8C52,5,53,6.1,54.3,6.2c1.3,0.2,2.5-0.8,2.7-1.9c0.2-1.2-0.8-2.3-2.1-2.4
								C53.6,1.8,52.4,2.6,52.2,3.8z"/>
						</g>
					</g>
				</g>
				<path id="XMLID_72_" class="st3" d="M84,36.3c-1,0.8-1.1,2.2-0.3,3s2.3,0.6,3.2-0.3s1.1-2.2,0.3-3C86.3,35.2,84.9,35.3,84,36.3z
					"/>
			</g>
			<g id="XMLID_66_">
				<g id="XMLID_69_">
					<path id="XMLID_70_" class="st1" d="M155.8,10.3c-0.3,2.5,1.4,4.7,4.1,4.8c2.7,0.3,5.1-1.5,5.4-4s-1.4-4.6-4.1-4.8
						C158.6,6.1,156.1,7.8,155.8,10.3z"/>
				</g>
				<g id="XMLID_67_" class="st6">
					<path id="XMLID_68_" class="st4" d="M157.6,9.1c-0.2,1.2,0.8,2.3,2.1,2.4c1.3,0.2,2.5-0.8,2.7-1.9s-0.8-2.3-2.1-2.4
						C159,7,157.8,7.8,157.6,9.1z"/>
				</g>
			</g>
			<g id="XMLID_61_">
				<path id="XMLID_65_" class="st5" d="M101.3,58.3c-0.3,3.3-3.1,5.8-6.3,5.6c-3.2-0.1-5.4-2.9-5.2-6.2c0.3-3.3,3.1-5.8,6.3-5.6
					C99.4,52.2,101.6,55,101.3,58.3z"/>
				<path id="XMLID_64_" class="st5" d="M121.1,59.1c-0.3,3.3-3.1,5.8-6.3,5.6c-3.2-0.1-5.4-2.9-5.2-6.2c0.3-3.3,3.1-5.8,6.3-5.6
					C119.1,53.1,121.4,55.8,121.1,59.1z"/>
				<path id="XMLID_63_" class="st4" d="M118.9,60.2c-0.2,2-1.9,3.6-3.9,3.5c-2-0.1-3.4-1.8-3.2-3.9c0.2-2,1.9-3.6,3.9-3.5
					C117.6,56.5,119.1,58.2,118.9,60.2z"/>
				<path id="XMLID_62_" class="st4" d="M99.1,59.4c-0.2,2-1.9,3.6-3.9,3.5c-2-0.1-3.4-1.8-3.2-3.9c0.2-2,1.9-3.6,3.9-3.5
					C97.9,55.6,99.3,57.3,99.1,59.4z"/>
			</g>
			<path id="XMLID_59_" class="st7" d="M75.8,60.8c4.2-16.6,20-29.2,38-32.5c-1.9-0.2-5.7-0.5-5.7-0.5c-28.6-0.5-49.6,18-55.4,46.7
				C60,80,69,84.2,78.3,86.3C74.5,78.7,73.6,69.5,75.8,60.8z"/>
		</g>
		<g id="XMLID_54_">
			<path id="XMLID_117_" class="st8" d="M36.6,111.3c2.9,11.9,24.4,22.6,58.7,28.2l-0.2,1.4l-0.2,0c0.1,0-0.1,0-0.1,0
				c0.1,0,0.2,0,0.2,0l0.1,0l0.2-1.4c32.7,5.1,57.7,1.7,64.1-8.7c-16.6-6.4-38.7-11.3-60.6-14.5C76.7,112.6,54.3,110.4,36.6,111.3z"
				/>
			<g id="XMLID_93_" class="st9">
				<path id="XMLID_116_" class="st10" d="M54.5,118.1c17.6-0.9,39.8-1.2,61.5,2.5c10,1.5,20,3.3,29.5,5.4
					c-13.4-3.8-28.7-6.8-43.8-9.1C80,113.2,57.6,111,40,111.9c2.6,10.4,20.2,20.3,48,26.1C68.5,132.2,56.7,126.5,54.5,118.1z"/>
				<path id="XMLID_97_" class="st10" d="M98.2,141.1L98.2,141.1L98.2,141.1L98.2,141.1z"/>
				<path id="XMLID_60_" class="st10" d="M98,141.1L98,141.1L98,141.1C97.9,141,98.1,141.1,98,141.1z"/>
				<path id="XMLID_57_" class="st10" d="M98.3,140.9L98.3,140.9L98.3,140.9z"/>
			</g>
			<path id="XMLID_92_" class="st1" d="M36.3,110c7.4-16.4,32-23.9,66.3-18.5l-0.1,0.8l-0.5-0.1c0.1,0-0.3,0-0.3,0l0.2,0l0.5,0.1
				l0.1-0.8c32.6,5.2,54.5,20.1,56.4,38c-18.1,3-40.7,1.4-62.6-2.4C74.5,123.9,52.6,118.3,36.3,110z"/>
			<g id="XMLID_89_">
				<path id="XMLID_91_" class="st3" d="M109.5,115.5l6.3-3.1l-5-4.9l0.9-5.3l8.1,8.6l-0.7,4.5l-10.4,5.7L109.5,115.5z"/>
				<path id="XMLID_90_" class="st3" d="M91.7,118.3l-8.1-8.6l0.7-4.5l10.4-5.7l-0.9,5.3l-6.3,3.1l5,4.9L91.7,118.3z"/>
			</g>
			<path id="XMLID_56_" class="st7" d="M55,113.3c3-13.3,20.1-21.4,41.3-21.2c-0.1,0-0.1,0-0.2,0c-28.5-1.5-49.4,6.1-55.9,21.5
				c3.7,1.8,9.2,4.1,14.5,5.7C54.4,117.4,54.6,115.3,55,113.3z"/>
		</g>
	</g>
	<g id="XMLID_96_" class="st0">
		<g id="XMLID_11_">
			<path id="XMLID_14_" class="st11" d="M4.3,124.8c0.1-0.5,0.2-1,0.3-1.5"/>
			<path id="XMLID_13_" class="st12" d="M4.8,122.3c7.8-38.7,49.1-37.7,45.8-12.2"/>
			<path id="XMLID_12_" class="st11" d="M50.5,110.6c-0.1,0.5-0.2,1-0.3,1.5"/>
		</g>
	</g>
</g>
</svg>
