<?xml version="1.0" encoding="utf-8"?>
<!-- Generator: Adobe Illustrator 19.0.0, SVG Export Plug-In . SVG Version: 6.00 Build 0)  -->
<svg version="1.1" id="Layer_1" xmlns="http://www.w3.org/2000/svg" xmlns:xlink="http://www.w3.org/1999/xlink" x="0px" y="0px"
	 viewBox="0 0 701.5 71.7" style="enable-background:new 0 0 701.5 71.7;" xml:space="preserve">
<style type="text/css">
	.st0{fill:#E6E6E6;}
	.st1{fill:#FF646F;}
	.st2{fill:#699EBD;}
</style>
<g>
	<g id="XMLID_2_">
		<g id="XMLID_3_">
			<path id="XMLID_4_" class="st0" d="M40.7,59.9V4.8h36.1c10.3,0,17.5,1.7,21.6,5.1c4.1,3.4,6.2,9.3,6.2,17.7
				c0,13.8-1.7,22.6-5,26.5c-3.3,3.9-10.8,5.9-22.4,5.9H40.7z M54.7,51.1h19.9c6.7,0,11-1.2,13-3.5c2-2.3,2.9-7.4,2.9-15.3
				c0-8.1-0.9-13.3-2.6-15.5c-1.8-2.2-5.9-3.3-12.4-3.3H54.7V51.1z"/>
			<path id="XMLID_7_" class="st0" d="M127.3,13.6v14.2h34.5v7.7h-34.5v15.6h36.7v8.8h-50.6V4.8h50.3v8.8H127.3z"/>
			<path id="XMLID_9_" class="st0" d="M219.7,40.3h14v1.9c0,7.7-1.9,12.6-5.6,14.9c-3.7,2.2-12,3.4-24.8,3.4
				c-14.5,0-23.4-1.8-26.8-5.3c-3.3-3.6-5-13.1-5-28.5c0-9.1,2.3-15.1,6.8-18c4.5-2.9,14-4.3,28.4-4.3c10.5,0,17.5,1.2,21,3.5
				c3.5,2.4,5.3,7,5.3,14l0.1,1.3h-14v-1.4c0-3.6-0.9-5.9-2.7-6.9c-1.8-1-6-1.5-12.4-1.5c-8.7,0-13.9,0.8-15.6,2.4
				c-1.7,1.6-2.6,6.3-2.6,14.1c0,10.6,0.8,16.8,2.3,18.7c1.6,1.9,6.6,2.9,15.2,2.9c6.9,0,11.4-0.5,13.5-1.6c2.1-1.1,3.1-3.4,3.1-7.1
				L219.7,40.3z"/>
			<path id="XMLID_11_" class="st0" d="M273.1,4.3c13.4,0,22,1.7,25.8,5c3.8,3.3,5.8,10.8,5.8,22.3c0,12.6-1.9,20.6-5.8,23.9
				c-3.9,3.3-13.2,4.9-28,4.9c-13.4,0-22-1.6-25.9-4.9c-3.9-3.2-5.9-10.4-5.9-21.4c0-13.1,1.9-21.4,5.8-24.8
				C248.6,6,258.1,4.3,273.1,4.3z M272,13.3c-9.4,0-14.8,0.9-16.4,2.7c-1.6,1.8-2.4,8.1-2.4,18.7c0,7.9,0.9,12.7,2.8,14.3
				c1.8,1.6,7.3,2.4,16.3,2.4c8.7,0,13.8-0.9,15.6-2.7c1.7-1.8,2.6-7.3,2.6-16.5c0-9.2-0.8-14.7-2.5-16.4
				C286.4,14.1,281,13.3,272,13.3z"/>
			<path id="XMLID_14_" class="st0" d="M314.1,59.9V4.8h36.1c10.3,0,17.5,1.7,21.6,5.1c4.1,3.4,6.2,9.3,6.2,17.7
				c0,13.8-1.7,22.6-5,26.5c-3.3,3.9-10.8,5.9-22.4,5.9H314.1z M328,51.1h19.9c6.7,0,11-1.2,13-3.5c2-2.3,2.9-7.4,2.9-15.3
				c0-8.1-0.9-13.3-2.6-15.5c-1.8-2.2-5.9-3.3-12.4-3.3H328V51.1z"/>
			<path id="XMLID_17_" class="st0" d="M400.6,13.6v14.2h34.5v7.7h-34.5v15.6h36.7v8.8h-50.6V4.8H437v8.8H400.6z"/>
		</g>
		<g id="XMLID_19_">
			<path id="XMLID_20_" class="st1" d="M504,41.5h8.2v2.1c0,7.5-1.7,12.2-5.1,14.1c-3.4,1.9-12,2.8-25.7,2.8
				c-12.3,0-20.1-1.6-23.5-4.9c-3.3-3.3-5-11.1-5-23.3c0-9.6,0.4-15.6,1.1-18c0.8-2.5,2.9-4.7,6.5-6.6c4.2-2.3,13.2-3.4,27-3.4
				c9.4,0,15.7,1.1,18.9,3.3c3.3,2.2,4.9,6.4,4.9,12.6l0.1,1.5h-8.2l-0.1-1.7c0-4.4-1-7.3-2.9-8.6c-1.9-1.3-6.3-1.9-13-1.9
				c-11.9,0-19.1,0.7-21.7,2.2c-2.6,1.5-3.9,5.6-3.9,12.3c0,15.5,0.9,24.6,2.6,27.2c1.8,2.7,7.8,4,18,4c9.8,0,15.9-0.6,18.3-1.7
				c2.4-1.2,3.6-4.1,3.6-8.7L504,41.5z"/>
			<path id="XMLID_22_" class="st1" d="M602.3,4.8v55.2H594V15.8v-3.3l0.1-1.7l0.1-1.7h-0.2l-0.6,1.3c-0.3,0.6-0.5,1.1-0.6,1.3
				l-1.4,2.6l-25,45.6h-8.3l-25.1-45.1l-1.5-2.5l-0.6-1.3c-0.2-0.3-0.4-0.7-0.6-1.3h-0.2l0.1,1.5l0.1,1.5v3v44.1h-8.3V4.8H536
				l19.6,35.7l3.1,5.8l1.6,2.9l1.5,2.9h0.2l1.5-2.9c0.8-1.4,1.3-2.3,1.5-2.9l3.2-5.7l19.5-35.7H602.3z"/>
			<path id="XMLID_24_" class="st1" d="M666.7,19.7h-8.2c0-4.4-1-7.3-3-8.5c-2-1.2-6.6-1.8-13.9-1.8c-8.7,0-14.3,0.6-16.8,1.7
				c-2.5,1.1-3.8,3.7-3.8,7.7c0,4.4,1,7.2,3,8.1c2,1,7.8,1.6,17.6,2c11.5,0.4,18.7,1.5,21.8,3.3c3.1,1.8,4.7,5.8,4.7,12.1
				c0,6.8-1.8,11.2-5.4,13.2c-3.6,2-11.5,3-23.7,3c-10.6,0-17.6-1-21.1-3c-3.5-2-5.2-6.1-5.2-12.1l-0.1-2.5h8.2v1.4c0,4.9,1,8,3,9.2
				c2,1.2,7.2,1.8,15.5,1.8c9.5,0,15.4-0.6,17.6-1.8c2.2-1.2,3.3-4.4,3.3-9.6c0-3.4-0.7-5.6-2.2-6.7c-1.5-1.1-4.6-1.8-9.3-2
				l-8.6-0.3l-8.2-0.3C619.3,33.8,613,29,613,19.9c0-6.3,1.8-10.5,5.4-12.6c3.6-2.1,10.9-3.2,21.7-3.2c11,0,18.2,1,21.5,2.9
				C665,9.1,666.7,13.3,666.7,19.7z"/>
		</g>
	</g>
	<g id="XMLID_26_">
		<path id="XMLID_27_" class="st2" d="M0,0h22.6v7.7h-9.7V64h9.7v7.7H0V0z"/>
	</g>
	<g id="XMLID_29_">
		<path id="XMLID_30_" class="st2" d="M701.5,71.7h-22.2V64h9.4V7.7h-9.4V0h22.2V71.7z"/>
	</g>
</g>
</svg>
