<?xml version="1.0" encoding="utf-8"?>
<!-- Generator: Adobe Illustrator 19.0.0, SVG Export Plug-In . SVG Version: 6.00 Build 0)  -->
<svg version="1.1" id="Layer_1" xmlns="http://www.w3.org/2000/svg" xmlns:xlink="http://www.w3.org/1999/xlink" x="0px" y="0px"
	 viewBox="0 0 134 17" style="enable-background:new 0 0 134 17;" xml:space="preserve">
<style type="text/css">
	.st0{fill:#707070;}
</style>
<g id="XMLID_1_">
	<path id="XMLID_46_" class="st0" d="M7.8,13.6V3.1h6.9c2,0,3.3,0.3,4.1,1C19.6,4.7,20,5.8,20,7.4c0,2.6-0.3,4.3-1,5.1
		c-0.6,0.7-2.1,1.1-4.3,1.1L7.8,13.6L7.8,13.6z M10.4,11.9h3.8c1.3,0,2.1-0.2,2.5-0.7s0.6-1.4,0.6-2.9c0-1.5-0.2-2.5-0.5-3
		c-0.3-0.4-1.1-0.6-2.4-0.6h-4V11.9z"/>
	<path id="XMLID_45_" class="st0" d="M24.3,4.7v2.7h6.6v1.5h-6.6v3h7v1.7h-9.7V3.1h9.6v1.7H24.3z"/>
	<path id="XMLID_44_" class="st0" d="M42,9.8h2.7v0.4c0,1.5-0.4,2.4-1.1,2.8c-0.7,0.4-2.3,0.6-4.7,0.6c-2.8,0-4.5-0.3-5.1-1
		c-0.6-0.7-1-2.5-1-5.4c0-1.7,0.4-2.9,1.3-3.4C34.9,3.3,36.7,3,39.5,3c2,0,3.3,0.2,4,0.7c0.7,0.5,1,1.3,1,2.7l0,0.2h-2.7V6.3
		c0-0.7-0.2-1.1-0.5-1.3C41,4.8,40.2,4.7,39,4.7c-1.7,0-2.7,0.2-3,0.5s-0.5,1.2-0.5,2.7c0,2,0.2,3.2,0.4,3.6
		c0.3,0.4,1.3,0.6,2.9,0.6c1.3,0,2.2-0.1,2.6-0.3c0.4-0.2,0.6-0.6,0.6-1.4L42,9.8z"/>
	<path id="XMLID_43_" class="st0" d="M52.2,3c2.6,0,4.2,0.3,4.9,1c0.7,0.6,1.1,2.1,1.1,4.3c0,2.4-0.4,3.9-1.1,4.6
		c-0.7,0.6-2.5,0.9-5.3,0.9c-2.6,0-4.2-0.3-4.9-0.9c-0.7-0.6-1.1-2-1.1-4.1c0-2.5,0.4-4.1,1.1-4.7C47.5,3.3,49.3,3,52.2,3z M52,4.7
		c-1.8,0-2.8,0.2-3.1,0.5c-0.3,0.3-0.5,1.5-0.5,3.6c0,1.5,0.2,2.4,0.5,2.7c0.3,0.3,1.4,0.5,3.1,0.5c1.7,0,2.6-0.2,3-0.5
		c0.3-0.3,0.5-1.4,0.5-3.2S55.3,5.5,55,5.2C54.7,4.8,53.7,4.7,52,4.7z"/>
	<path id="XMLID_42_" class="st0" d="M60,13.6V3.1h6.9c2,0,3.3,0.3,4.1,1s1.2,1.8,1.2,3.4c0,2.6-0.3,4.3-1,5.1
		c-0.6,0.7-2.1,1.1-4.3,1.1L60,13.6L60,13.6z M62.7,11.9h3.8c1.3,0,2.1-0.2,2.5-0.7c0.4-0.4,0.6-1.4,0.6-2.9c0-1.5-0.2-2.5-0.5-3
		c-0.3-0.4-1.1-0.6-2.4-0.6h-4V11.9z"/>
	<path id="XMLID_41_" class="st0" d="M76.5,4.7v2.7h6.6v1.5h-6.6v3h7v1.7h-9.7V3.1h9.6v1.7H76.5z"/>
	<path id="XMLID_39_" class="st0" d="M96.3,10.1h1.6v0.4c0,1.4-0.3,2.3-1,2.7c-0.6,0.4-2.3,0.5-4.9,0.5c-2.3,0-3.8-0.3-4.5-0.9
		c-0.6-0.6-1-2.1-1-4.5c0-1.8,0.1-3,0.2-3.4C86.9,4.4,87.3,4,88,3.6C88.8,3.2,90.5,3,93.1,3c1.8,0,3,0.2,3.6,0.6
		C97.4,4,97.7,4.8,97.7,6l0,0.3h-1.6l0-0.3c0-0.8-0.2-1.4-0.6-1.6C95.2,4.1,94.3,4,93.1,4c-2.3,0-3.6,0.1-4.1,0.4
		c-0.5,0.3-0.7,1.1-0.7,2.3c0,3,0.2,4.7,0.5,5.2c0.3,0.5,1.5,0.8,3.4,0.8c1.9,0,3-0.1,3.5-0.3c0.5-0.2,0.7-0.8,0.7-1.7L96.3,10.1z"
		/>
	<path id="XMLID_38_" class="st0" d="M115.1,3.1v10.5h-1.6V5.2V4.5l0-0.3l0-0.3h0l-0.1,0.2c-0.1,0.1-0.1,0.2-0.1,0.2L113,4.9
		l-4.8,8.7h-1.6L101.8,5l-0.3-0.5l-0.1-0.2c0-0.1-0.1-0.1-0.1-0.2h0l0,0.3l0,0.3v0.6v8.4h-1.6V3.1h2.7l3.7,6.8l0.6,1.1l0.3,0.6
		l0.3,0.6h0l0.3-0.6c0.2-0.3,0.2-0.4,0.3-0.6l0.6-1.1l3.7-6.8L115.1,3.1L115.1,3.1z"/>
	<path id="XMLID_37_" class="st0" d="M127.4,5.9h-1.6c0-0.8-0.2-1.4-0.6-1.6c-0.4-0.2-1.3-0.3-2.7-0.3c-1.7,0-2.7,0.1-3.2,0.3
		s-0.7,0.7-0.7,1.5c0,0.8,0.2,1.4,0.6,1.5c0.4,0.2,1.5,0.3,3.4,0.4c2.2,0.1,3.6,0.3,4.2,0.6c0.6,0.3,0.9,1.1,0.9,2.3
		c0,1.3-0.3,2.1-1,2.5c-0.7,0.4-2.2,0.6-4.5,0.6c-2,0-3.4-0.2-4-0.6c-0.7-0.4-1-1.2-1-2.3l0-0.5h1.6v0.3c0,0.9,0.2,1.5,0.6,1.8
		c0.4,0.2,1.4,0.3,3,0.3c1.8,0,2.9-0.1,3.4-0.3c0.4-0.2,0.6-0.8,0.6-1.8c0-0.6-0.1-1.1-0.4-1.3c-0.3-0.2-0.9-0.3-1.8-0.4l-1.6-0.1
		l-1.6-0.1c-2.4-0.2-3.6-1.1-3.6-2.8c0-1.2,0.3-2,1-2.4c0.7-0.4,2.1-0.6,4.1-0.6c2.1,0,3.5,0.2,4.1,0.6C127,3.9,127.4,4.7,127.4,5.9
		z"/>
	<g id="XMLID_33_">
		<path id="XMLID_34_" class="st0" d="M0,2.1h4.3v1.5H2.5v10.8h1.9v1.5H0V2.1z"/>
	</g>
	<g id="XMLID_53_">
		<path id="XMLID_54_" class="st0" d="M134,15.8h-4.2v-1.5h1.8V3.6h-1.8V2.1h4.2V15.8z"/>
	</g>
</g>
</svg>
