<?xml version="1.0" encoding="utf-8"?>
<!-- Generator: Adobe Illustrator 19.0.0, SVG Export Plug-In . SVG Version: 6.00 Build 0)  -->
<svg version="1.1" id="Layer_1" xmlns="http://www.w3.org/2000/svg" xmlns:xlink="http://www.w3.org/1999/xlink" x="0px" y="0px"
	 viewBox="-391 196 175.6 170" style="enable-background:new -391 196 175.6 170;" xml:space="preserve">
<style type="text/css">
	.st0{opacity:0.1;}
	.st1{fill:#E6E6E6;}
</style>
<g id="XMLID_274_" class="st0">
	<path id="XMLID_275_" class="st1" d="M-303.2,196c-48.4,0-87.8,38.1-87.8,85s39.4,85,87.8,85s87.8-38.1,87.8-85
		S-254.8,196-303.2,196z M-303.2,199.9c46.2,0,83.7,36.4,83.7,81.1s-37.6,81.1-83.7,81.1c-46.2-0.1-83.7-36.4-83.7-81.1
		S-349.4,199.9-303.2,199.9z M-303.2,208.1c-26.3,0-49.5,13-62.9,32.8c1.8,0.1,3.5,0.1,4.9,0.1c7.9,0,20-1,20-1
		c4.1-0.2,4.6,5.5,0.5,6c0,0-4.1,0.5-8.6,0.7l27.4,78.9l16.5-47.9l-11.8-30.9c-4.1-0.2-7.9-0.7-7.9-0.7c-4.1-0.2-3.6-6.2,0.5-6
		c0,0,12.4,1,19.8,1c7.9,0,20.1-1,20.1-1c4.1-0.2,4.6,5.5,0.5,6c0,0-4.1,0.5-8.6,0.7l27.2,78.3l7.5-24.3c3.3-10.1,5.8-17.3,5.8-23.5
		c0-9-3.3-15.3-6.2-20.1c-3.8-6-7.4-11.1-7.4-17.1c0-6.7,5.2-12.9,12.6-12.9c0.3,0,0.7,0,1,0.1
		C-265.7,215.3-283.6,208.1-303.2,208.1z M-237.1,246c0.3,2.3,0.5,4.9,0.5,7.5c0,7.4-1.5,15.7-5.8,26.1l-23,64.4
		c22.4-12.6,37.4-36.1,37.4-63C-227.9,268.3-231.2,256.4-237.1,246z M-372,251.3c-4.2,9.1-6.5,19.1-6.5,29.7
		c0,28.9,17.3,53.8,42.4,65.6L-372,251.3z M-301.9,287.4l-22.6,63.6c6.8,1.9,13.9,2.9,21.3,2.9c8.8,0,17.2-1.4,25-4.1
		c-0.2-0.3-0.4-0.6-0.5-1L-301.9,287.4z"/>
</g>
</svg>
