<?xml version="1.0" encoding="utf-8"?>
<!-- Generator: Adobe Illustrator 19.0.0, SVG Export Plug-In . SVG Version: 6.00 Build 0)  -->
<svg version="1.1" id="Layer_1" xmlns="http://www.w3.org/2000/svg" xmlns:xlink="http://www.w3.org/1999/xlink" x="0px" y="0px"
	 viewBox="0 0 250 30" style="enable-background:new 0 0 250 30;" xml:space="preserve">
<style type="text/css">
	.st0{fill:#707070;}
	.st1{fill:#FF646F;}
	.st2{fill:#377A9B;}
</style>
<g id="XMLID_32_">
	<g id="XMLID_35_">
		<g id="XMLID_40_">
			<path id="XMLID_46_" class="st0" d="M17,25.9V6.6h12.6c3.6,0,6.1,0.6,7.6,1.8c1.4,1.2,2.2,3.3,2.2,6.2c0,4.8-0.6,7.9-1.8,9.3
				c-1.2,1.4-3.8,2.1-7.8,2.1L17,25.9L17,25.9z M21.9,22.8h7c2.3,0,3.9-0.4,4.6-1.2c0.7-0.8,1-2.6,1-5.4c0-2.8-0.3-4.7-0.9-5.4
				c-0.6-0.8-2.1-1.2-4.3-1.2h-7.3V22.8z"/>
			<path id="XMLID_45_" class="st0" d="M47.3,9.7v5h12.1v2.7H47.3v5.5h12.8v3.1H42.4V6.6H60v3.1H47.3z"/>
			<path id="XMLID_44_" class="st0" d="M79.6,19h4.9v0.7c0,2.7-0.7,4.4-2,5.2c-1.3,0.8-4.2,1.2-8.7,1.2c-5.1,0-8.2-0.6-9.4-1.9
				c-1.2-1.3-1.8-4.6-1.8-10c0-3.2,0.8-5.3,2.4-6.3c1.6-1,4.9-1.5,9.9-1.5c3.7,0,6.1,0.4,7.4,1.2c1.2,0.8,1.9,2.5,1.9,4.9l0,0.5
				h-4.9v-0.5c0-1.3-0.3-2.1-0.9-2.4c-0.6-0.4-2.1-0.5-4.3-0.5c-3,0-4.9,0.3-5.5,0.8s-0.9,2.2-0.9,4.9c0,3.7,0.3,5.9,0.8,6.5
				c0.6,0.7,2.3,1,5.3,1c2.4,0,4-0.2,4.7-0.6c0.7-0.4,1.1-1.2,1.1-2.5L79.6,19z"/>
			<path id="XMLID_43_" class="st0" d="M98.3,6.4c4.7,0,7.7,0.6,9,1.8c1.3,1.2,2,3.8,2,7.8c0,4.4-0.7,7.2-2,8.4
				c-1.4,1.2-4.6,1.7-9.8,1.7c-4.7,0-7.7-0.6-9.1-1.7c-1.4-1.1-2.1-3.6-2.1-7.5c0-4.6,0.7-7.5,2-8.7C89.8,7,93.1,6.4,98.3,6.4z
				 M98,9.6c-3.3,0-5.2,0.3-5.7,0.9c-0.6,0.6-0.8,2.8-0.8,6.5c0,2.8,0.3,4.4,1,5c0.6,0.6,2.6,0.8,5.7,0.8c3,0,4.8-0.3,5.5-0.9
				c0.6-0.6,0.9-2.6,0.9-5.8s-0.3-5.1-0.9-5.7C103,9.8,101.1,9.6,98,9.6z"/>
			<path id="XMLID_42_" class="st0" d="M112.7,25.9V6.6h12.6c3.6,0,6.1,0.6,7.6,1.8s2.2,3.3,2.2,6.2c0,4.8-0.6,7.9-1.8,9.3
				c-1.2,1.4-3.8,2.1-7.8,2.1L112.7,25.9L112.7,25.9z M117.6,22.8h7c2.3,0,3.9-0.4,4.6-1.2c0.7-0.8,1-2.6,1-5.4
				c0-2.8-0.3-4.7-0.9-5.4c-0.6-0.8-2.1-1.2-4.3-1.2h-7.3V22.8z"/>
			<path id="XMLID_41_" class="st0" d="M143,9.7v5H155v2.7H143v5.5h12.8v3.1h-17.7V6.6h17.6v3.1H143z"/>
		</g>
		<g id="XMLID_36_">
			<path id="XMLID_39_" class="st1" d="M179.2,19.4h2.9v0.7c0,2.6-0.6,4.3-1.8,4.9c-1.2,0.7-4.2,1-9,1c-4.3,0-7-0.6-8.2-1.7
				c-1.2-1.2-1.8-3.9-1.8-8.2c0-3.4,0.1-5.5,0.4-6.3c0.3-0.9,1-1.6,2.3-2.3c1.5-0.8,4.6-1.2,9.5-1.2c3.3,0,5.5,0.4,6.6,1.2
				c1.2,0.8,1.7,2.2,1.7,4.4l0,0.5h-2.9l0-0.6c0-1.5-0.4-2.6-1-3c-0.7-0.5-2.2-0.7-4.6-0.7c-4.2,0-6.7,0.2-7.6,0.8s-1.4,2-1.4,4.3
				c0,5.4,0.3,8.6,0.9,9.5c0.6,0.9,2.7,1.4,6.3,1.4c3.4,0,5.6-0.2,6.4-0.6c0.8-0.4,1.3-1.4,1.3-3L179.2,19.4z"/>
			<path id="XMLID_38_" class="st1" d="M213.6,6.6v19.3h-2.9V10.4V9.3l0-0.6l0-0.6h-0.1l-0.2,0.5c-0.1,0.2-0.2,0.4-0.2,0.5l-0.5,0.9
				l-8.8,16h-2.9l-8.8-15.8l-0.5-0.9l-0.2-0.5c-0.1-0.1-0.1-0.2-0.2-0.5h-0.1l0,0.5l0,0.5v1.1v15.4h-2.9V6.6h4.9l6.9,12.5l1.1,2
				l0.6,1l0.5,1h0.1l0.5-1c0.3-0.5,0.5-0.8,0.5-1l1.1-2l6.8-12.5L213.6,6.6L213.6,6.6z"/>
			<path id="XMLID_37_" class="st1" d="M236.1,11.8h-2.9c0-1.5-0.4-2.6-1.1-3c-0.7-0.4-2.3-0.6-4.9-0.6c-3,0-5,0.2-5.9,0.6
				c-0.9,0.4-1.3,1.3-1.3,2.7c0,1.5,0.4,2.5,1.1,2.8c0.7,0.4,2.7,0.6,6.2,0.7c4,0.1,6.5,0.5,7.6,1.2c1.1,0.6,1.6,2,1.6,4.2
				c0,2.4-0.6,3.9-1.9,4.6c-1.3,0.7-4,1.1-8.3,1.1c-3.7,0-6.2-0.4-7.4-1.1c-1.2-0.7-1.8-2.1-1.8-4.2l0-0.9h2.9v0.5
				c0,1.7,0.4,2.8,1.1,3.2c0.7,0.4,2.5,0.6,5.4,0.6c3.3,0,5.4-0.2,6.2-0.6c0.8-0.4,1.2-1.5,1.2-3.4c0-1.2-0.2-2-0.8-2.3
				c-0.5-0.4-1.6-0.6-3.3-0.7l-3-0.1l-2.9-0.1c-4.4-0.3-6.6-2-6.6-5.1c0-2.2,0.6-3.7,1.9-4.4c1.3-0.7,3.8-1.1,7.6-1.1
				c3.9,0,6.4,0.4,7.5,1C235.5,8.1,236.1,9.6,236.1,11.8z"/>
		</g>
	</g>
	<g id="XMLID_33_">
		<path id="XMLID_34_" class="st2" d="M2.7,4.9h7.9v2.7H7.2v19.7h3.4V30H2.7V4.9z"/>
	</g>
	<g id="XMLID_53_">
		<path id="XMLID_54_" class="st2" d="M248.3,30h-7.8v-2.7h3.3V7.6h-3.3V4.9h7.8V30z"/>
	</g>
</g>
</svg>
