<?xml version="1.0" encoding="utf-8"?>
<!-- Generator: Adobe Illustrator 19.0.0, SVG Export Plug-In . SVG Version: 6.00 Build 0)  -->
<svg version="1.1" id="Layer_1" xmlns="http://www.w3.org/2000/svg" xmlns:xlink="http://www.w3.org/1999/xlink" x="0px" y="0px"
	 viewBox="0 0 450 382" style="enable-background:new 0 0 450 382;" xml:space="preserve">
<style type="text/css">
	.st0{fill:#CCCCCC;}
	.st1{fill:#44758E;}
	.st2{opacity:0.3;}
	.st3{fill:#333333;}
	.st4{fill:#4289B2;}
	.st5{fill:#E6E6E6;}
	.st6{fill:#FFFFFF;}
	.st7{fill:#808080;}
	.st8{opacity:0.5;}
	.st9{fill:#F2F2F2;fill-opacity:0.15;}
	.st10{fill:#666666;}
	.st11{fill:#B3B3B3;}
	.st12{font-family:'Consolas';}
	.st13{font-size:68.8827px;}
</style>
<g id="XMLID_81_">
	<polygon id="XMLID_105_" class="st0" points="46.3,283 43.7,263.4 57.3,256.7 76.5,253.4 89.6,265.4 90.5,280.3 79.2,280.3 
		77.9,267.6 60.2,265.5 58.7,282.2 	"/>
	<g id="XMLID_83_">
		<g id="XMLID_103_">
			<path id="XMLID_104_" class="st0" d="M146.9,189.2l6.6,12.6l-3.3-6.3l3.3,6.3c-0.1,0-0.8,0.3-2,0.7l-7.1-12.5
				C146,189.5,146.9,189.2,146.9,189.2z"/>
		</g>
		<g id="XMLID_86_">
			<path id="XMLID_87_" class="st0" d="M142.1,190.9l7.4,12.4c-1.2,0.4-2.5,1-4.1,1.6l-7.8-12.2C139.3,192,140.9,191.4,142.1,190.9z
				 M135.4,193.6l7.9,12.1c-1.3,0.5-2.6,1.1-4,1.7l-8.3-12C132.6,194.8,134.1,194.2,135.4,193.6z M128.9,196.5l8.4,11.9
				c-1.3,0.6-2.6,1.2-4,1.8l-8.7-11.8C126.1,197.8,127.5,197.1,128.9,196.5z M122.5,199.5l8.9,11.7c-1.3,0.6-2.6,1.3-3.9,2
				l-9.2-11.5C119.7,200.9,121.1,200.2,122.5,199.5z M116.2,202.7l9.4,11.4c-1.3,0.7-2.5,1.3-3.8,2.1l-9.8-11.3
				C113.5,204.2,114.8,203.5,116.2,202.7z M110,206.1l9.9,11.2c-1.2,0.7-2.4,1.4-3.7,2.2L106,208.5
				C107.3,207.7,108.7,206.9,110,206.1z M104,209.7l10.5,10.8c-1.2,0.7-2.4,1.5-3.5,2.3l-10.9-10.6
				C101.4,211.4,102.7,210.6,104,209.7z M98.2,213.6l11.1,10.4c-1.1,0.8-2.2,1.6-3.4,2.4l-11.5-10.1
				C95.6,215.4,96.9,214.4,98.2,213.6z M92.5,217.7l11.8,9.9c-1.1,0.8-2.1,1.7-3.2,2.5l-12.2-9.6C90.1,219.6,91.3,218.6,92.5,217.7z
				 M87.1,222l12.5,9.4c-1,0.9-2,1.8-2.9,2.6l-13-8.9C84.8,224.1,85.9,223,87.1,222z M82,226.7l13.3,8.6c-0.9,0.9-1.8,1.8-2.7,2.8
				L78.9,230C79.9,228.9,80.9,227.8,82,226.7z M77.3,231.7l14.1,7.8c-0.8,1-1.6,1.9-2.3,2.9l-14.6-7.1
				C75.4,234.1,76.3,232.9,77.3,231.7z M73.1,237.2l14.9,6.7c-0.7,1-1.3,2-1.9,3L70.7,241C71.4,239.7,72.2,238.4,73.1,237.2z
				 M69.6,243l15.7,5.4c-0.5,1-1,2-1.5,3.1L67.6,247C68.2,245.7,68.8,244.3,69.6,243z M66.8,249.1l16.4,3.8c-0.4,1-0.7,2.1-1,3.1
				l-16.8-2.7C65.9,252,66.3,250.6,66.8,249.1z"/>
		</g>
		<g id="XMLID_84_">
			<path id="XMLID_85_" class="st0" d="M65,255.6l16.9,2c-0.1,0.5-0.2,1.1-0.3,1.6l-17-1.4C64.8,257.1,64.9,256.3,65,255.6z"/>
		</g>
	</g>
	<path id="XMLID_82_" class="st0" d="M152.1,186.9L152.1,186.9l-6.9,2.9l7.9,12.1l7.1-2.5l0,0c0,0,0.1,0,0.1,0
		c2.4-1,2.5-4.7,0.2-8.1C158.3,187.9,154.6,186,152.1,186.9z"/>
</g>
<g id="XMLID_33_">
	<polygon id="XMLID_124_" class="st0" points="405.7,286 408.2,266.4 395.1,259.7 376.7,256.4 364.1,268.4 363.3,283.3 374.1,283.3 
		375.3,270.6 392.4,268.5 393.8,285.2 	"/>
	<g id="XMLID_35_">
		<g id="XMLID_122_">
			<path id="XMLID_123_" class="st0" d="M309.2,192.2l-6.4,12.6l3.2-6.3l-3.2,6.3c0.1,0,0.7,0.3,1.9,0.7l6.9-12.5
				C310,192.5,309.2,192.2,309.2,192.2z"/>
		</g>
		<g id="XMLID_39_">
			<path id="XMLID_106_" class="st0" d="M313.7,193.9l-7.1,12.4c1.1,0.4,2.4,1,3.9,1.6l7.5-12.2C316.4,195,314.9,194.4,313.7,193.9z
				 M320.1,196.6l-7.6,12.1c1.2,0.5,2.5,1.1,3.9,1.7l7.9-12C322.8,197.8,321.4,197.2,320.1,196.6z M326.4,199.5l-8.1,11.9
				c1.2,0.6,2.5,1.2,3.8,1.8l8.4-11.8C329.1,200.8,327.7,200.1,326.4,199.5z M332.6,202.5l-8.6,11.7c1.2,0.6,2.5,1.3,3.7,2l8.9-11.5
				C335.2,203.9,333.9,203.2,332.6,202.5z M338.6,205.7l-9,11.4c1.2,0.7,2.4,1.3,3.6,2.1l9.4-11.3
				C341.2,207.2,339.9,206.5,338.6,205.7z M344.5,209.1l-9.5,11.2c1.2,0.7,2.3,1.4,3.5,2.2l9.9-10.9
				C347.1,210.7,345.8,209.9,344.5,209.1z M350.3,212.7l-10.1,10.8c1.1,0.7,2.3,1.5,3.4,2.3l10.5-10.6
				C352.8,214.4,351.6,213.6,350.3,212.7z M355.9,216.6L345.2,227c1.1,0.8,2.2,1.6,3.2,2.4l11.1-10.1
				C358.4,218.4,357.1,217.4,355.9,216.6z M361.3,220.7l-11.3,9.9c1,0.8,2.1,1.7,3,2.5l11.7-9.6
				C363.7,222.6,362.5,221.6,361.3,220.7z M366.5,225l-12,9.4c1,0.9,1.9,1.8,2.8,2.6l12.5-8.9C368.8,227.1,367.6,226,366.5,225z
				 M371.4,229.7l-12.7,8.6c0.9,0.9,1.7,1.8,2.6,2.8l13.2-8.1C373.5,231.9,372.4,230.8,371.4,229.7z M375.9,234.7l-13.5,7.8
				c0.8,1,1.5,1.9,2.2,2.9l14-7.1C377.8,237.1,376.9,235.9,375.9,234.7z M379.9,240.2l-14.3,6.7c0.7,1,1.3,2,1.8,3l14.8-5.9
				C381.6,242.7,380.8,241.4,379.9,240.2z M383.4,246l-15.1,5.4c0.5,1,1,2,1.4,3.1l15.5-4.4C384.7,248.7,384.1,247.3,383.4,246z
				 M386,252.1l-15.7,3.8c0.4,1,0.7,2.1,0.9,3.1l16.1-2.7C386.9,255,386.5,253.6,386,252.1z"/>
		</g>
		<g id="XMLID_36_">
			<path id="XMLID_37_" class="st0" d="M387.7,258.6l-16.2,2c0.1,0.5,0.2,1.1,0.3,1.6l16.3-1.4C387.9,260.1,387.8,259.3,387.7,258.6
				z"/>
		</g>
	</g>
	<path id="XMLID_34_" class="st0" d="M304.1,189.9L304.1,189.9l6.6,2.9l-7.6,12.1l-6.9-2.5l0,0c0,0-0.1,0-0.1,0
		c-2.3-1-2.4-4.7-0.2-8.1C298.2,190.9,301.8,189,304.1,189.9z"/>
</g>
<path id="XMLID_80_" class="st1" d="M116.8,224.5c8.2,19.4,47.7,31.9,107.7,31.8l0,2.5c0,0-0.4,0-0.4,0c0.1,0-0.2,0-0.1,0
	c0.1,0,0.3,0,0.4,0c0,0,0.1,0,0.1,0l0-2.5c57.1-0.2,98.6-12.9,106.7-32.4c-30-6.3-68.9-8.5-107.3-8.1
	C185.6,215.6,146.8,218,116.8,224.5z"/>
<g id="XMLID_75_" class="st2">
	<path id="XMLID_79_" class="st3" d="M147.3,231.1c29.7-6.3,67.4-12.9,105.4-12.6c17.4-0.2,35,0.2,51.8,1.2
		c-23.9-2.7-50.6-3.7-77-3.4c-38.1-0.3-76.9,2-106.6,8.3c7.3,17,39.9,28.9,88.9,31.3C175.1,251.3,153.2,245,147.3,231.1z"/>
	<path id="XMLID_78_" class="st3" d="M228,258.4C228,258.4,228.1,258.4,228,258.4c0,0,0,0-0.1,0C228,258.4,228,258.4,228,258.4z"/>
	<path id="XMLID_77_" class="st3" d="M227.7,258.4c0,0,0.1,0,0.2,0c-0.1,0-0.2,0-0.3,0C227.5,258.4,227.8,258.4,227.7,258.4z"/>
	<path id="XMLID_76_" class="st3" d="M228.1,258C228.1,258,228.1,258,228.1,258C228.1,258,228.1,258,228.1,258z"/>
</g>
<path id="XMLID_27_" class="st4" d="M114.1,222.4c8.1-29.9,47.9-49.4,107.9-49.7v1.3c0,0-0.8,0-0.8,0c0.1,0-0.6,0-0.5,0
	c0.1,0,0.3,0,0.4,0c0,0,0.9,0,0.9,0v-1.3c57,0,98.2,19.2,106.5,49.1c-30,10-68.9,13.6-107.2,13.1
	C182.9,235.6,144.1,232.2,114.1,222.4z"/>
<g id="XMLID_61_">
	<path id="XMLID_64_" class="st5" d="M240.2,211.7l9.8-7.1l-9.8-7l0-9.4l16.1,12.5l0,7.9l-16.1,12.6L240.2,211.7z"/>
	<path id="XMLID_62_" class="st5" d="M210.6,221.2l-16.1-12.5l0-7.9l16.1-12.6l0,9.4l-9.8,7.1l9.8,7L210.6,221.2z"/>
</g>
<g id="XMLID_32_">
	<path id="XMLID_74_" class="st4" d="M138,146.1c8.4-51.2,42.1-84.7,92.2-85.7l-0.1,3.4c0,0-2.6,0-2.6,0c0.1,0-0.3,0-0.2,0
		c0.1,0,0.5,0,0.5,0c0,0,2.3,0,2.3,0l0.1-3.4c47.3-0.4,78.3,32.1,83.3,83.1c-25.1,17.3-57.2,23.8-88.5,23.2
		C193.6,168.2,162,162.6,138,146.1z"/>
	<g id="XMLID_70_">
		<g id="XMLID_71_">
			<polygon id="XMLID_72_" class="st5" points="269.7,83.9 288.8,64.5 283.3,62.1 301.7,47.8 295.7,45.6 313.4,30 311.3,27.9 
				289.9,46.7 295.6,48.8 277.5,62.9 283.6,65.5 267.5,81.9 			"/>
		</g>
	</g>
	<path id="XMLID_69_" class="st5" d="M266.2,82.4c0.7,2,2.9,3.2,4.8,2.5c2-0.6,3-2.8,2.3-4.9c-0.7-2-2.8-3.2-4.8-2.5
		C266.6,78.2,265.5,80.4,266.2,82.4z"/>
	<g id="XMLID_66_">
		<path id="XMLID_68_" class="st6" d="M227.3,103c30.4-0.8,57.8-18,54.6,7.8c-0.8,6.1-24.9,13.9-55.3,14.5
			c-30.4,0.3-54-6.8-54.4-12.9C170.7,86.7,196.9,103.1,227.3,103z"/>
		<path id="XMLID_67_" class="st7" d="M227.3,103c28.6-0.7,54.5-15.9,54.8,3.6c2-23.6-24.9-7.1-54.7-6.3
			c-29.7,0.1-55.4-15.5-55.2,7.8C174,88.7,198.8,103.1,227.3,103z"/>
	</g>
	<g id="XMLID_51_">
		<g id="XMLID_53_">
			<g id="XMLID_59_">
				<polygon id="XMLID_60_" class="st5" points="189.6,80.8 192,78.8 171.3,58.6 178.8,54.2 159.9,43.8 168.4,39.7 143.2,28.8 
					141.7,31.4 161.4,39.9 153.2,43.9 172.5,53.4 164.7,56.5 				"/>
			</g>
			<g id="XMLID_54_">
				<g id="XMLID_57_">
					<path id="XMLID_58_" class="st4" d="M127.7,26.6c-0.4,4.3,3,7.9,7.6,8c4.6,0.2,8.6-3.1,9-7.4c0.4-4.3-3-7.8-7.6-8
						C132.2,19,128.1,22.3,127.7,26.6z"/>
				</g>
				<g id="XMLID_55_" class="st8">
					<path id="XMLID_56_" class="st6" d="M129.8,24.3c-0.2,2.1,1.5,3.9,3.8,4c2.3,0.1,4.3-1.6,4.5-3.7c0.2-2.1-1.5-3.9-3.8-4
						C132,20.5,130,22.2,129.8,24.3z"/>
				</g>
			</g>
		</g>
		<path id="XMLID_52_" class="st5" d="M187.7,77c-1.6,1.6-1.7,4-0.2,5.2c1.5,1.2,4,0.9,5.6-0.8c1.6-1.7,1.7-4,0.2-5.2
			C191.8,75,189.3,75.4,187.7,77z"/>
	</g>
	<g id="XMLID_46_">
		<g id="XMLID_49_">
			<path id="XMLID_50_" class="st4" d="M308.8,25.3c-0.4,4.3,3,7.9,7.6,8c4.6,0.2,8.6-3.1,9-7.4c0.4-4.3-3-7.8-7.6-8
				C313.2,17.7,309.2,21,308.8,25.3z"/>
		</g>
		<g id="XMLID_47_" class="st8">
			<path id="XMLID_48_" class="st6" d="M311.8,23c-0.2,2.1,1.5,3.9,3.8,4c2.3,0.1,4.3-1.6,4.5-3.7c0.2-2.1-1.5-3.9-3.8-4
				C314,19.2,312,20.9,311.8,23z"/>
		</g>
	</g>
	<g id="XMLID_41_">
		<path id="XMLID_45_" class="st7" d="M219.8,113.2c-0.2,5.7-4.8,10.3-10.3,10.4c-5.5,0.1-9.7-4.5-9.5-10.1
			c0.2-5.7,4.8-10.3,10.3-10.4C215.8,103,220,107.5,219.8,113.2z"/>
		<path id="XMLID_44_" class="st7" d="M253.9,112.7c-0.2,5.7-4.8,10.3-10.3,10.4c-5.5,0.1-9.7-4.5-9.5-10.1
			c0.2-5.7,4.8-10.3,10.3-10.4C249.8,102.5,254.1,107.1,253.9,112.7z"/>
		<path id="XMLID_43_" class="st6" d="M250.1,114.9c-0.1,3.5-3,6.4-6.3,6.4c-3.4,0-6-2.8-5.9-6.3c0.1-3.5,3-6.4,6.3-6.4
			C247.6,108.6,250.3,111.4,250.1,114.9z"/>
		<path id="XMLID_42_" class="st6" d="M216.1,115.3c-0.1,3.5-3,6.4-6.3,6.4c-3.4,0-6-2.8-5.9-6.3c0.1-3.5,3-6.4,6.3-6.4
			C213.6,109,216.2,111.8,216.1,115.3z"/>
	</g>
	<path id="XMLID_38_" class="st9" d="M176,120.1c5.6-29,31.5-52.2,62.2-59.6c-3.2-0.2-9.8-0.3-9.8-0.3
		c-49.3,1.9-83.6,35.8-90.7,85.8c13.1,8.6,29,15,45.2,17.7C175.7,151.1,173,135.4,176,120.1z"/>
</g>
<path id="XMLID_31_" class="st9" d="M146.6,220.5c2.3-23.5,29.6-41.1,65.8-45.3c-0.1,0-0.2,0-0.3,0c-49.2,3.8-83.2,21.3-90.8,49.1
	c6.7,2.2,16.7,5,26,6.5C146.5,227.6,146.3,223.9,146.6,220.5z"/>
<rect id="XMLID_28_" x="44.4" y="251.7" transform="matrix(0.9994 -3.507641e-002 3.507641e-002 0.9994 -10.4862 8.0439)" class="st10" width="359.2" height="102.4"/>
<g id="XMLID_1_">
	<path id="XMLID_3_" class="st6" d="M168.2,330.4l-0.4-11.9l-29.5,1.1l-0.4-9.9l29.8-38.7l11.6-0.4l1.4,37.5l8.9-0.3l0.4,10
		l-8.9,0.3l0.4,11.9L168.2,330.4z M167.4,308.6l-0.8-20.2l-15.8,20.8L167.4,308.6z"/>
	<path id="XMLID_6_" class="st6" d="M218.2,269.1c7-0.3,12.5,1.6,16.6,5.5c4.9,4.7,7.5,12.6,7.9,23.8c0.4,11.2-1.6,19.3-6.2,24.4
		c-3.7,4.2-9.1,6.4-16.1,6.7c-7,0.3-12.7-1.7-17.2-6c-4.5-4.3-6.9-12.1-7.3-23.4c-0.4-11.1,1.6-19.2,6.2-24.3
		C205.9,271.6,211.2,269.4,218.2,269.1z M218.6,278.5c-1.7,0.1-3.1,0.6-4.4,1.5c-1.3,0.9-2.2,2.5-2.9,4.8c-0.8,3-1.1,7.9-0.9,14.8
		c0.3,6.9,0.9,11.7,1.8,14.2c0.9,2.6,2.1,4.2,3.4,5.1c1.3,0.8,2.8,1.2,4.5,1.1c1.7-0.1,3.1-0.6,4.4-1.5c1.3-0.9,2.2-2.5,2.9-4.8
		c0.8-2.9,1.1-7.9,0.9-14.8c-0.3-6.9-0.9-11.7-1.8-14.2c-0.9-2.6-2.1-4.3-3.4-5.1C221.7,278.8,220.2,278.5,218.6,278.5z"/>
	<path id="XMLID_9_" class="st6" d="M280.1,326.2l-0.4-11.9l-29.5,1.1l-0.4-9.9l29.8-38.7l11.6-0.4l1.4,37.5l8.9-0.3l0.4,10
		l-8.9,0.3l0.4,11.9L280.1,326.2z M279.3,304.4l-0.8-20.2L262.7,305L279.3,304.4z"/>
</g>
<rect id="XMLID_30_" x="53.5" y="253.7" class="st0" width="17.2" height="17.5"/>
<rect id="XMLID_125_" x="388.5" y="263.9" transform="matrix(0.9848 0.174 -0.174 0.9848 53.6952 -64.9088)" class="st0" width="17.2" height="20"/>
<text id="XMLID_73_" transform="matrix(1 0 0 1 325.3654 136.5223)" class="st11 st12 st13">?</text>
<text id="XMLID_2_" transform="matrix(1 0 0 1 81.9438 125.3088)" class="st11 st12 st13">¿</text>
</svg>
