<?xml version="1.0" encoding="utf-8"?>
<!-- Generator: Adobe Illustrator 19.0.0, SVG Export Plug-In . SVG Version: 6.00 Build 0)  -->
<svg version="1.1" id="Layer_1" xmlns="http://www.w3.org/2000/svg" xmlns:xlink="http://www.w3.org/1999/xlink" x="0px" y="0px"
	 viewBox="0 0 228.5 251.5" style="enable-background:new 0 0 228.5 251.5;" xml:space="preserve">
<style type="text/css">
	.st0{fill:#E6E6E6;}
	.st1{fill:#4289B2;}
	.st2{opacity:0.5;}
	.st3{fill:#FFFFFF;}
	.st4{fill:#44758E;}
	.st5{opacity:0.3;}
	.st6{fill:#333333;}
	.st7{fill:#666666;}
	.st8{clip-path:url(#SVGID_2_);}
	.st9{fill:#808080;}
	.st10{fill:#F2F2F2;fill-opacity:0.2;}
	.st11{clip-path:url(#SVGID_4_);}
</style>
<g>
	<g>
		<g>
			<g>
				<polygon class="st0" points="135.9,80.1 150.7,56.5 144.7,54.9 159.9,36.8 153.4,35.4 167.8,16.1 165.2,14.2 148,37.5 
					154.1,38.8 139.1,56.6 145.8,58.4 133.2,78.4 				"/>
			</g>
			<g>
				<path class="st1" d="M162.8,10.1c0.8,4.6,5.1,7.6,9.7,6.9c4.6-0.8,7.6-5.1,6.8-9.7c-0.8-4.6-5.1-7.6-9.7-6.8
					C165.1,1.2,162,5.5,162.8,10.1z"/>
			</g>
			<g class="st2">
				<circle class="st3" cx="168.1" cy="6.9" r="4.2"/>
			</g>
		</g>
	</g>
	<path class="st4" d="M21.3,233.4c11.1,17.4,51.3,23.1,109.3,13.3l0.4,2.4c0,0-0.4,0.1-0.4,0.1c0.1,0-0.2,0-0.1,0
		c0.1,0,0.3-0.1,0.4-0.1c0,0,0.1,0,0.1,0l-0.4-2.4c55.2-9.5,93.2-28.5,97.9-48.6c-30-1.3-68,2.9-105,9.6
		C86.3,213.6,49.2,222.2,21.3,233.4z"/>
	<g class="st5">
		<path class="st6" d="M46.3,231.4c27.9-11.2,65-19.8,102.2-25.7c17-3.1,34.1-5.6,50.7-7.3c-23.7,1.2-49.9,4.7-75.7,9.3
			c-37.2,6-74.3,14.6-102.2,25.7c9.9,15.6,43,21.7,91.1,15.9C77.9,250.5,54.4,244.1,46.3,231.4z"/>
		<path class="st6" d="M131,249.1C131,249.1,131,249.1,131,249.1c0,0,0,0-0.1,0C130.9,249.1,130.9,249.1,131,249.1z"/>
		<path class="st6" d="M130.7,249.1c0,0,0.1,0,0.2,0c-0.1,0-0.2,0-0.3,0C130.5,249.2,130.7,249.1,130.7,249.1z"/>
		<path class="st6" d="M131,249.1C131,249.1,131,249,131,249.1C131,249,131,249,131,249.1z"/>
	</g>
	<path class="st1" d="M32.4,156.1c-2.7-55.8,23.7-96.6,73.3-105.4l0,0c47-7.7,84.9,22.1,100.9,75.7c-21.3,22.2-51.8,34.1-83.1,38.3
		C92.5,171,59.9,170,32.4,156.1z"/>
	<path class="st1" d="M21.3,233.2c3-30.3,37.9-55.5,95.9-65.5l0.2,1.3c0,0-0.4,0.1-0.4,0.1c0.1,0-0.2,0-0.1,0c0.1,0,0.3-0.1,0.4-0.1
		c0,0,0.1,0,0.1,0l-0.2-1.3c55.2-9.3,98.5,2.6,111.3,30.2c-27.4,14.5-64.4,24.3-101.5,30.1C90,234.8,51.9,237.8,21.3,233.2z"/>
	<path class="st0" d="M179.3,76.1c-4.1,3.3-8.5,6.6-13.3,9.5c-27.8,15.4-62.5,12.4-44.5,37.1c4.3,5.8,30.6,1,58.2-14.6
		c5.4-3.1,10.4-6.4,14.9-9.7C190.2,89.9,185,82.5,179.3,76.1z"/>
	<path class="st7" d="M123.3,123.3c-18-25.3,15.9-21.8,43.7-37.6c4.6-2.7,8.8-6.1,12.7-9.3c-0.4-0.5-0.9-0.9-1.3-1.5
		c-4.1,3.4-8.6,6.9-13.4,9.8c-27.8,15.8-62.5,12.7-44.5,38c0.6,0.8,2.7,1.3,3.9,1.7C124.1,124.2,123.4,123.6,123.3,123.3z"/>
	<g>
		<g>
			<defs>
				<path id="SVGID_1_" d="M183.8,98c0.4-6.3-3.5-12.1-8.6-13c-5.2-0.9-9.7,3.4-10.1,9.6c-0.4,6.3,3.5,12.1,8.6,13
					C178.9,108.6,183.4,104.3,183.8,98z"/>
			</defs>
			<use xlink:href="#SVGID_1_"  style="overflow:visible;fill:#808080;"/>
			<clipPath id="SVGID_2_">
				<use xlink:href="#SVGID_1_"  style="overflow:visible;"/>
			</clipPath>
			<g class="st8">
				
					<rect x="152.5" y="98.3" transform="matrix(0.9841 0.1776 -0.1776 0.9841 20.2375 -29.4819)" class="st9" width="44.4" height="0"/>
			</g>
			<g class="st8">
				
					<rect x="153.3" y="98.3" transform="matrix(0.9841 0.1777 -0.1777 0.9841 20.2565 -29.5231)" class="st9" width="43.2" height="0"/>
			</g>
			<g class="st8">
				
					<rect x="153.5" y="95.6" transform="matrix(0.9841 0.1778 -0.1778 0.9841 19.7788 -29.6095)" class="st9" width="43.2" height="0"/>
			</g>
			<g class="st8">
				
					<rect x="153.1" y="90" transform="matrix(0.9841 0.1776 -0.1776 0.9841 18.7773 -29.7056)" class="st9" width="44.4" height="0"/>
			</g>
			<g class="st8">
				
					<rect x="152.5" y="87.1" transform="matrix(0.9841 0.1777 -0.1777 0.9841 18.2584 -29.6577)" class="st9" width="44.5" height="0"/>
			</g>
			<g class="st8">
				<polygon class="st9" points="194.8,107.5 151.6,99.7 151.4,102.4 194.6,110.2 				"/>
			</g>
		</g>
	</g>
	<g id="XMLID_3_">
		<path id="XMLID_6_" class="st0" d="M167.4,196.5l8.3-8.5l-10.6-5.2l-1.6-9.1l17.6,9.5l1.3,7.6L169,205.6L167.4,196.5z"/>
		<path id="XMLID_4_" class="st0" d="M140.3,210.5l-17.6-9.5l-1.3-7.6l13.5-14.8l1.6,9.1l-8.3,8.4l10.6,5.2L140.3,210.5z"/>
	</g>
	<path class="st10" d="M69.6,122.3c0-32.5,20.8-60.4,50.6-72.6c-3.3,0.2-6.6,0.5-10,1l0,0c-49.6,8.8-76,49.6-73.3,105.4
		c15,7.6,31.5,11.3,48.4,12.2C75.5,155.3,69.6,139.4,69.6,122.3z"/>
	<g>
		<g>
			<defs>
				<path id="SVGID_3_" d="M159.8,109c0.4-6.3-3.5-12.1-8.6-13c-5.2-0.9-9.7,3.4-10.1,9.6c-0.4,6.3,3.5,12.1,8.6,13
					C154.9,119.6,159.4,115.3,159.8,109z"/>
			</defs>
			<use xlink:href="#SVGID_3_"  style="overflow:visible;fill:#808080;"/>
			<clipPath id="SVGID_4_">
				<use xlink:href="#SVGID_3_"  style="overflow:visible;"/>
			</clipPath>
			<g class="st11">
				
					<rect x="128.5" y="109.3" transform="matrix(0.9841 0.1776 -0.1776 0.9841 21.8099 -25.0434)" class="st9" width="44.4" height="0"/>
			</g>
			<g class="st11">
				
					<rect x="129.3" y="109.3" transform="matrix(0.9841 0.1777 -0.1777 0.9841 21.8294 -25.0826)" class="st9" width="43.2" height="0"/>
			</g>
			<g class="st11">
				
					<rect x="129.5" y="106.6" transform="matrix(0.9841 0.1778 -0.1778 0.9841 21.3522 -25.1671)" class="st9" width="43.2" height="0"/>
			</g>
			<g class="st11">
				
					<rect x="129.1" y="101" transform="matrix(0.9841 0.1776 -0.1776 0.9841 20.3496 -25.2672)" class="st9" width="44.4" height="0"/>
			</g>
			<g class="st11">
				
					<rect x="128.5" y="98.1" transform="matrix(0.9841 0.1777 -0.1777 0.9841 19.831 -25.2187)" class="st9" width="44.5" height="0"/>
			</g>
			<g class="st11">
				<polygon class="st9" points="170.8,118.5 127.6,110.7 127.4,113.4 170.6,121.2 				"/>
			</g>
		</g>
	</g>
	
		<ellipse transform="matrix(0.9977 -6.829753e-002 6.829753e-002 0.9977 -6.0155 12.3109)" class="st0" cx="177" cy="94.1" rx="4.1" ry="6.2"/>
	
		<ellipse transform="matrix(0.9977 -6.830162e-002 6.830162e-002 0.9977 -6.9315 10.757)" class="st0" cx="153.8" cy="106.7" rx="4.1" ry="6.2"/>
	<path class="st3" d="M61.1,218.3"/>
	<path class="st10" d="M48.8,224.4c0-26.1,28.6-48.3,68.8-56.8c-0.1,0-0.3,0-0.4,0.1c-58,10.1-92.9,35.2-95.9,65.5
		c9.2,1.4,19,2.1,29.3,2.2C49.4,231.8,48.8,228.2,48.8,224.4z"/>
	<g>
		<g>
			<g>
				<polygon class="st0" points="96.7,80.5 98.4,77.8 72.4,61 78.7,54.8 57.2,47.8 64.4,41.7 36.5,35.5 35.8,38.6 57.5,43.4 
					50.6,49.3 72.2,55.2 65.3,60.2 				"/>
			</g>
			<g>
				<path class="st1" d="M20.6,36.4c0.8,4.6,5.1,7.6,9.7,6.8c4.6-0.8,7.6-5.1,6.8-9.7c-0.8-4.6-5.1-7.6-9.7-6.8
					C22.9,27.6,19.9,31.9,20.6,36.4z"/>
			</g>
			<g class="st2">
				<circle class="st3" cx="26.1" cy="32.9" r="4.2"/>
			</g>
		</g>
		<path class="st0" d="M93.7,76.9c-1.1,2.1-0.6,4.5,1.3,5.5c1.8,1,4.2,0.1,5.3-2c1.1-2.1,0.6-4.5-1.3-5.5
			C97.2,73.9,94.8,74.8,93.7,76.9z"/>
	</g>
</g>
<ellipse id="XMLID_1_" transform="matrix(0.8598 0.5106 -0.5106 0.8598 110.2033 -12.4773)" class="st3" cx="77.8" cy="194.5" rx="6.2" ry="10.3"/>
</svg>
